{"title":"Lethal.Weapon.1987.REMASTERED.RERiP.1080p.BluRay.x264-iLLUSiON","uid":13059340,"size":8211248767,"categoryP":"video","categoryS":"hd___movies","magnet":"?xt=urn:btih:dad738615d9e46b238b1af24c1913d03ee179428&amp;dn=Lethal.Weapon.1987.REMASTERED.RERiP.1080p.BluRay.x264-iLLUSiON&amp;tr=udp%3A%2F%2Ftracker.leechers-paradise.org%3A6969&amp;tr=udp%3A%2F%2Fzer0day.ch%3A1337&amp;tr=udp%3A%2F%2Fopen.demonii.com%3A1337&amp;tr=udp%3A%2F%2Ftracker.coppersurfer.tk%3A6969&amp;tr=udp%3A%2F%2Fexodus.desync.com%3A6969","seeders":0,"leechers":1,"uploader":"TheRival","files":3,"time":1450695992,"description":"Screens: \nhttp://extraimago.com/image/5OB \nhttp://extraimago.com/image/5OC \nhttp://extraimago.com/image/5OY \nhttp://extraimago.com/image/5Op \nhttp://extraimago.com/image/5Or \nhttp://extraimago.com/image/5OG\r\n\r\nVideo\r\nID                                       : 1\r\nFormat                                   : AVC\r\nFormat/Info                              : Advanced Video Codec\r\nFormat profile                           :   \r\nFormat settings, CABAC                   : Yes\r\nFormat settings, ReFrames                : 4 frames\r\nCodec ID                                 : V_MPEG4/ISO/AVC\r\nDuration                                 : 1h 49mn\r\nBit rate                                 : 8 482 Kbps\r\nWidth                                    : 1 920 pixels\r\nHeight                                   : 1 080 pixels\r\nDisplay aspect ratio                     : 16:9\r\nFrame rate mode                          : Constant\r\nFrame rate                               : 23.976 fps\r\nColor space                              : YUV\r\nChroma subsampling                       : 4:2:0\r\nBit depth                                : 8 bits\r\nScan type                                : Progressive\r\nBits/(Pixel*Frame)                       : 0.171\r\nStream size                              : 6.34 GiB (83%)\r\nWriting library                          : x264 core 146 r2538 121396c\r\nEncoding settings                        : cabac=1 / ref=4 / deblock=1:0:0 / analyse=0x3:0x113 / me=umh / subme=8 / psy=1 / psy_rd=1.00:0.00 / mixed_ref=1 / me_range=16 / chroma_me=1 / trellis=1 / 8x8dct=1 / cqm=0 / deadzone=21,11 / fast_pskip=0 / chroma_qp_offset=-2 / threads=6 / lookahead_threads=1 / sliced_threads=0 / nr=0 / decimate=1 / interlaced=0 / bluray_compat=0 / constrained_intra=0 / bframes=3 / b_pyramid=2 / b_adapt=2 / b_bias=0 / direct=3 / weightb=1 / open_gop=0 / weightp=2 / keyint=250 / keyint_min=23 / scenecut=40 / intra_refresh=0 / rc_lookahead=50 / rc=2pass / mbtree=1 / bitrate=8482 / ratetol=1.0 / qcomp=0.60 / qpmin=0 / qpmax=69 / qpstep=4 / cplxblur=20.0 / qblur=0.5 / ip_ratio=1.40 / aq=1:1.00\r\nDefault                                  : Yes\r\nForced                                   : No\r\n\r\nAudio\r\nID                                       : 2\r\nFormat                                   : DTS\r\nFormat/Info                              : Digital Theater Systems\r\nMode                                     : 16\r\nFormat settings, Endianness              : Big\r\nCodec ID                                 : A_DTS\r\nDuration                                 : 1h 49mn\r\nBit rate mode                            : Constant\r\nBit rate                                 : 1 509 Kbps\r\nChannel(s)                               : 6 channels\r\nChannel positions                        : Front: L C R, Side: L R, LFE\r\nSampling rate                            : 48.0 KHz\r\nBit depth                                : 24 bits\r\nCompression mode                         : Lossy\r\nStream size                              : 1.16 GiB (15%)\r\nLanguage                                 : English\r\nDefault                                  : Yes\r\nForced                                   : No\r\n\r\nMenu\r\n00:00:00.000                             : en:00:00:00.000\r\n00:04:26.099                             : en:00:04:26.099\r\n00:11:13.840                             : en:00:11:13.840\r\n00:14:53.601                             : en:00:14:53.601\r\n00:18:13.301                             : en:00:18:13.301\r\n00:23:05.009                             : en:00:23:05.009\r\n00:25:58.390                             : en:00:25:58.390\r\n00:28:36.048                             : en:00:28:36.048\r\n00:36:45.787                             : en:00:36:45.787\r\n00:42:59.577                             : en:00:42:59.577\r\n00:54:12.708                             : en:00:54:12.708\r\n00:57:39.206                             : en:00:57:39.206\r\n01:03:44.237                             : en:01:03:44.237\r\n01:08:10.295                             : en:01:08:10.295\r\n01:10:25.930                             : en:01:10:25.930\r\n01:15:17.513                             : en:01:15:17.513\r\n01:23:47.522                             : en:01:23:47.522\r\n01:29:30.365                             : en:01:29:30.365\r\n01:36:55.476                             : en:01:36:55.476\r\n01:38:54.929                             : en:01:38:54.929\r\n01:43:03.010                             : en:01:43:03.010\r\n01:43:48.222                             : en:01:43:48.222\r\n01:44:45.905                             : en:01:44:45.905","torrent":{"xt":"urn:btih:dad738615d9e46b238b1af24c1913d03ee179428","amp;dn":"Lethal.Weapon.1987.REMASTERED.RERiP.1080p.BluRay.x264-iLLUSiON","amp;tr":["udp%3A%2F%2Ftracker.leechers-paradise.org%3A6969","udp%3A%2F%2Fzer0day.ch%3A1337","udp%3A%2F%2Fopen.demonii.com%3A1337","udp%3A%2F%2Ftracker.coppersurfer.tk%3A6969","udp%3A%2F%2Fexodus.desync.com%3A6969"],"infoHash":"dad738615d9e46b238b1af24c1913d03ee179428","infoHashBuffer":{"type":"Buffer","data":[218,215,56,97,93,158,70,178,56,177,175,36,193,145,61,3,238,23,148,40]},"announce":[],"urlList":[]}}